<svg xmlns="http://www.w3.org/2000/svg" width="830" height="208" viewBox="0 0 830 208" font-family="-apple-system,BlinkMacSystemFont,'Segoe UI',Helvetica,Arial,sans-serif"><rect x="0" y="14" width="3" height="20" rx="1.5" fill="#ED7100"/><text x="14" y="28.5" font-size="12" font-weight="600" fill="#59636e" letter-spacing=".3">COMPUTE</text><rect x="210" y="9" width="98" height="30" rx="8" fill="#f6f8fa" stroke="#d0d7de"/><circle cx="225" cy="24" r="4" fill="#ED7100"/><text x="237" y="28.5" font-size="13" font-weight="700" fill="#1f2328">Lambda</text><rect x="315.984375" y="9" width="68" height="30" rx="8" fill="#f6f8fa" stroke="#d0d7de"/><circle cx="330.984375" cy="24" r="4" fill="#ED7100"/><text x="342.984375" y="28.5" font-size="13" font-weight="700" fill="#1f2328">ECS</text><rect x="0" y="54" width="3" height="20" rx="1.5" fill="#E7157B"/><text x="14" y="68.5" font-size="12" font-weight="600" fill="#59636e" letter-spacing=".3">APP INTEGRATION</text><rect x="210" y="49" width="149" height="30" rx="8" fill="#f6f8fa" stroke="#d0d7de"/><circle cx="225" cy="64" r="4" fill="#E7157B"/><text x="237" y="68.5" font-size="13" font-weight="700" fill="#1f2328">Step Functions</text><rect x="367.265625" y="49" width="130" height="30" rx="8" fill="#f6f8fa" stroke="#d0d7de"/><circle cx="382.265625" cy="64" r="4" fill="#E7157B"/><text x="394.265625" y="68.5" font-size="13" font-weight="700" fill="#1f2328">EventBridge</text><rect x="505.09375" y="49" width="113" height="30" rx="8" fill="#f6f8fa" stroke="#d0d7de"/><circle cx="520.09375" cy="64" r="4" fill="#E7157B"/><text x="532.09375" y="68.5" font-size="13" font-weight="700" fill="#1f2328">SQS / SNS</text><rect x="0" y="94" width="3" height="20" rx="1.5" fill="#7AA116"/><text x="14" y="108.5" font-size="12" font-weight="600" fill="#59636e" letter-spacing=".3">STORAGE &amp; DATABASE</text><rect x="210" y="89" width="58" height="30" rx="8" fill="#f6f8fa" stroke="#d0d7de"/><circle cx="225" cy="104" r="4" fill="#7AA116"/><text x="237" y="108.5" font-size="13" font-weight="700" fill="#1f2328">S3</text><rect x="276.40625" y="89" width="120" height="30" rx="8" fill="#f6f8fa" stroke="#d0d7de"/><circle cx="291.40625" cy="104" r="4" fill="#7AA116"/><text x="303.40625" y="108.5" font-size="13" font-weight="700" fill="#1f2328">DynamoDB</text><rect x="0" y="134" width="3" height="20" rx="1.5" fill="#8C4FFF"/><text x="14" y="148.5" font-size="12" font-weight="600" fill="#59636e" letter-spacing=".3">ANALYTICS</text><rect x="210" y="129" width="73" height="30" rx="8" fill="#f6f8fa" stroke="#d0d7de"/><circle cx="225" cy="144" r="4" fill="#8C4FFF"/><text x="237" y="148.5" font-size="13" font-weight="700" fill="#1f2328">Glue</text><rect x="0" y="174" width="3" height="20" rx="1.5" fill="#DD344C"/><text x="14" y="188.5" font-size="12" font-weight="600" fill="#59636e" letter-spacing=".3">NETWORKING &amp; SECURITY</text><rect x="210" y="169" width="120" height="30" rx="8" fill="#f6f8fa" stroke="#d0d7de"/><circle cx="225" cy="184" r="4" fill="#DD344C"/><text x="237" y="188.5" font-size="13" font-weight="700" fill="#1f2328">CloudFront</text><rect x="338.359375" y="169" width="73" height="30" rx="8" fill="#f6f8fa" stroke="#d0d7de"/><circle cx="353.359375" cy="184" r="4" fill="#DD344C"/><text x="365.359375" y="188.5" font-size="13" font-weight="700" fill="#1f2328">WAF</text><rect x="419.0625" y="169" width="106" height="30" rx="8" fill="#f6f8fa" stroke="#d0d7de"/><circle cx="434.0625" cy="184" r="4" fill="#DD344C"/><text x="446.0625" y="188.5" font-size="13" font-weight="700" fill="#1f2328">Route 53</text></svg>